<svg id="Layer_1" enable-background="new 0 0 512 512" height="512" viewBox="0 0 512 512" width="512" xmlns="http://www.w3.org/2000/svg"><path d="m31 225v242c0 24.813 20.187 45 45 45h375v-91h30v-150h-30v-91h-127.722c4.994-14.082 7.722-29.228 7.722-45 0-74.439-60.561-135-135-135s-135 60.561-135 135c0 15.982 2.799 31.321 7.92 45.562-21.461 3.407-37.92 22.034-37.92 44.438zm420 166h-105c-8.271 0-15-6.729-15-15v-60c0-8.271 6.729-15 15-15h105zm-255-361c57.897 0 105 47.103 105 105s-47.103 105-105 105-105-47.103-105-105 47.103-105 105-105zm-135 195c0-8.271 6.729-15 15-15h7.806c24.247 36.154 65.487 60 112.194 60s87.947-23.846 112.194-60h112.806v61h-75c-24.813 0-45 20.187-45 45v60c0 24.813 20.187 45 45 45h75v61h-345c-8.271 0-15-6.729-15-15z"/><path d="m361 331h30v30h-30z"/><path d="m153.573 198.64 21.213-21.213 21.214 21.213 21.213-21.213 21.213 21.213 21.213-21.213-21.213-21.213 21.214-21.214-21.213-21.213 21.213-21.213-21.213-21.214-21.213 21.213-21.214-21.213-21.213 21.213-21.214-21.213-21.213 21.213 21.213 21.213-21.213 21.214 21.213 21.213-21.213 21.213zm63.64-63.64-21.213 21.213-21.213-21.213 21.213-21.213z"/></svg>